<svg width="134" height="35" viewBox="0 0 134 35" fill="none" xmlns="http://www.w3.org/2000/svg">
<path d="M10.584 0.351998C15.576 0.351998 19.4 1.248 22.056 3.04C24.712 4.8 26.04 7.552 26.04 11.296C26.04 13.632 25.496 15.536 24.408 17.008C23.352 18.448 21.816 19.584 19.8 20.416C20.472 21.248 21.176 22.208 21.912 23.296C22.648 24.352 23.368 25.472 24.072 26.656C24.808 27.808 25.512 29.024 26.184 30.304C26.856 31.552 27.48 32.784 28.056 34H19.656C19.048 32.912 18.424 31.808 17.784 30.688C17.176 29.568 16.536 28.48 15.864 27.424C15.224 26.368 14.584 25.376 13.944 24.448C13.304 23.488 12.664 22.624 12.024 21.856H8.328V34H0.84V1.216C2.472 0.895999 4.152 0.671999 5.88 0.543999C7.64 0.415998 9.208 0.351998 10.584 0.351998ZM11.016 6.736C10.472 6.736 9.976 6.752 9.528 6.784C9.112 6.816 8.712 6.848 8.328 6.88V15.904H10.44C13.256 15.904 15.272 15.552 16.488 14.848C17.704 14.144 18.312 12.944 18.312 11.248C18.312 9.616 17.688 8.464 16.44 7.792C15.224 7.088 13.416 6.736 11.016 6.736ZM29.9569 21.568C29.9569 19.328 30.2929 17.376 30.9649 15.712C31.6689 14.016 32.5809 12.608 33.7009 11.488C34.8209 10.368 36.1009 9.52 37.5409 8.944C39.0129 8.368 40.5169 8.08 42.0529 8.08C45.6369 8.08 48.4689 9.184 50.5489 11.392C52.6289 13.568 53.6689 16.784 53.6689 21.04C53.6689 21.456 53.6529 21.92 53.6209 22.432C53.5889 22.912 53.5569 23.344 53.5249 23.728H37.3009C37.4609 25.2 38.1489 26.368 39.3649 27.232C40.5809 28.096 42.2129 28.528 44.2609 28.528C45.5729 28.528 46.8529 28.416 48.1009 28.192C49.3809 27.936 50.4209 27.632 51.2209 27.28L52.1809 33.088C51.7969 33.28 51.2849 33.472 50.6449 33.664C50.0049 33.856 49.2849 34.016 48.4849 34.144C47.7169 34.304 46.8849 34.432 45.9889 34.528C45.0929 34.624 44.1969 34.672 43.3009 34.672C41.0289 34.672 39.0449 34.336 37.3489 33.664C35.6849 32.992 34.2929 32.08 33.1729 30.928C32.0849 29.744 31.2689 28.352 30.7249 26.752C30.2129 25.152 29.9569 23.424 29.9569 21.568ZM46.7569 18.832C46.7249 18.224 46.6129 17.632 46.4209 17.056C46.2609 16.48 45.9889 15.968 45.6049 15.52C45.2529 15.072 44.7889 14.704 44.2129 14.416C43.6689 14.128 42.9809 13.984 42.1489 13.984C41.3489 13.984 40.6609 14.128 40.0849 14.416C39.5089 14.672 39.0289 15.024 38.6449 15.472C38.2609 15.92 37.9569 16.448 37.7329 17.056C37.5409 17.632 37.3969 18.224 37.3009 18.832H46.7569ZM59.1881 9.616C60.4041 9.264 61.9721 8.944 63.8921 8.656C65.8121 8.336 67.8281 8.176 69.9401 8.176C72.0841 8.176 73.8601 8.464 75.2681 9.04C76.7081 9.584 77.8441 10.368 78.6761 11.392C79.5081 12.416 80.1001 13.632 80.4521 15.04C80.8041 16.448 80.9801 18.016 80.9801 19.744V34H73.8281V20.608C73.8281 18.304 73.5241 16.672 72.9161 15.712C72.3081 14.752 71.1721 14.272 69.5081 14.272C68.9961 14.272 68.4521 14.304 67.8761 14.368C67.3001 14.4 66.7881 14.448 66.3401 14.512V34H59.1881V9.616ZM87.2138 2.464L94.3658 1.312V8.752H102.958V14.704H94.3658V23.584C94.3658 25.088 94.6218 26.288 95.1338 27.184C95.6778 28.08 96.7498 28.528 98.3498 28.528C99.1178 28.528 99.9018 28.464 100.702 28.336C101.534 28.176 102.286 27.968 102.958 27.712L103.966 33.28C103.102 33.632 102.142 33.936 101.086 34.192C100.03 34.448 98.7338 34.576 97.1978 34.576C95.2458 34.576 93.6298 34.32 92.3498 33.808C91.0698 33.264 90.0458 32.528 89.2778 31.6C88.5098 30.64 87.9658 29.488 87.6458 28.144C87.3578 26.8 87.2138 25.312 87.2138 23.68V2.464ZM132.734 5.92C131.71 6.976 130.494 8.352 129.086 10.048C127.678 11.712 126.222 13.536 124.718 15.52C123.214 17.504 121.726 19.552 120.254 21.664C118.782 23.776 117.47 25.792 116.318 27.712H133.262V34H107.102V29.536C107.998 27.904 109.086 26.096 110.366 24.112C111.678 22.096 113.038 20.08 114.446 18.064C115.854 16.016 117.278 14.048 118.718 12.16C120.19 10.24 121.55 8.528 122.798 7.024H107.87V0.735999H132.734V5.92Z" fill="#FFC700"/>
</svg>
